<?xml version="1.0" standalone="no"?>
<!DOCTYPE svg PUBLIC "-//W3C//DTD SVG 20010904//EN"
 "http://www.w3.org/TR/2001/REC-SVG-20010904/DTD/svg10.dtd">
<svg version="1.0" xmlns="http://www.w3.org/2000/svg"
 width="180.000000pt" height="180.000000pt" viewBox="0 0 180.000000 180.000000"
 preserveAspectRatio="xMidYMid meet">
<metadata>
Created by potrace 1.13, written by Peter Selinger 2001-2015
</metadata>
<g transform="translate(0.000000,180.000000) scale(0.080000,-0.080000)"
fill="#000000" stroke="none">
<path d="M605 2165 c-27 -13 -70 -27 -95 -31 -25 -4 -53 -11 -63 -16 -10 -5
-46 -14 -80 -19 -92 -14 -157 -30 -157 -39 0 -4 18 -10 40 -14 22 -3 40 -10
40 -15 0 -4 -27 -35 -59 -68 -33 -33 -63 -72 -66 -86 -4 -15 -22 -40 -41 -57
-19 -16 -34 -32 -34 -35 0 -12 26 -3 47 17 l23 21 0 -85 c0 -48 3 -93 6 -102
4 -11 0 -16 -13 -16 -47 0 -75 -78 -47 -132 9 -18 22 -39 28 -47 11 -14 26
-73 45 -179 6 -29 17 -59 26 -68 8 -8 15 -31 15 -50 0 -29 -10 -45 -63 -100
-55 -56 -68 -64 -99 -64 -20 0 -40 -5 -43 -10 -4 -6 6 -10 21 -10 l28 0 -28
-29 c-15 -16 -24 -31 -19 -34 5 -3 54 38 109 91 104 102 154 179 154 239 0 23
5 32 21 36 21 6 21 5 15 -176 -6 -216 5 -287 51 -324 76 -61 191 -92 345 -93
39 0 85 -7 109 -16 37 -16 40 -19 35 -46 -18 -91 -139 -315 -229 -422 -50 -59
-135 -116 -175 -116 -101 0 -243 143 -345 348 l-47 92 88 0 c52 0 111 7 142
16 30 9 71 14 92 11 21 -3 38 -1 38 3 0 15 -67 22 -102 11 -66 -21 -164 -33
-215 -26 -44 5 -56 11 -68 33 -9 18 -14 21 -15 11 0 -29 111 -241 165 -314
103 -140 212 -215 289 -201 42 8 140 79 180 130 82 105 204 333 221 413 7 37
8 37 38 21 12 -6 45 -17 73 -23 49 -12 53 -11 125 24 l74 36 3 69 c2 42 9 78
19 93 16 23 21 25 72 20 101 -9 290 -98 364 -171 l50 -49 -6 -68 c-3 -37 -10
-76 -15 -86 -6 -10 -15 -70 -22 -133 -7 -63 -19 -151 -27 -195 -25 -135 -26
-141 -15 -130 16 16 39 137 57 293 9 79 22 160 30 181 7 21 13 86 14 151 2
102 4 117 28 157 14 25 33 47 42 50 9 3 39 16 66 28 35 16 78 25 145 30 98 6
183 27 212 52 17 15 33 61 24 70 -3 3 -13 -10 -22 -30 -21 -45 -79 -65 -213
-74 -59 -3 -113 -13 -140 -25 -38 -16 -42 -16 -30 -2 20 25 54 34 156 44 96 9
152 32 228 94 51 42 21 38 -38 -4 -72 -52 -116 -70 -167 -70 -23 0 -72 -7
-109 -16 -58 -13 -75 -21 -107 -57 -22 -23 -52 -62 -68 -86 -25 -38 -28 -51
-23 -93 3 -26 3 -48 -1 -48 -4 0 -23 16 -43 35 -78 74 -283 165 -370 165 -60
0 -65 8 -45 81 8 30 18 65 22 79 3 14 15 54 25 90 21 70 18 135 -8 167 -13 17
-14 16 -8 -7 17 -68 17 -109 -3 -166 -34 -101 -63 -214 -57 -225 4 -5 -3 -25
-15 -44 -17 -27 -21 -48 -19 -92 3 -56 2 -59 -31 -80 -18 -13 -40 -23 -49 -23
-9 0 -25 -7 -35 -15 -28 -21 -33 -20 -164 29 -106 39 -128 44 -238 49 -128 7
-181 21 -251 65 -72 45 -77 75 -65 377 11 269 17 315 38 315 9 0 14 12 14 35
0 36 6 40 46 29 16 -4 23 -16 28 -45 7 -41 29 -61 81 -74 17 -3 37 -13 46 -21
12 -11 36 -12 124 -5 100 7 110 10 132 35 13 15 23 33 23 40 0 7 8 20 18 29
23 21 72 12 72 -14 0 -10 9 -33 19 -51 11 -18 29 -63 42 -100 14 -41 27 -64
34 -62 13 6 45 -21 45 -37 0 -6 -9 -7 -20 -4 -15 5 -31 -2 -56 -24 -49 -44
-78 -39 -93 15 -10 37 -31 41 -86 14 -24 -12 -54 -20 -66 -18 -52 7 -50 82 1
101 17 6 30 15 30 19 0 26 -100 -27 -117 -63 -16 -33 4 -126 23 -107 3 4 1 15
-5 26 -14 26 -14 69 -1 77 6 3 10 -3 10 -14 0 -12 9 -30 21 -42 21 -21 38 -22
125 -4 26 6 36 2 57 -21 27 -29 76 -36 103 -13 10 8 14 8 14 0 0 -21 49 -12
61 11 l12 22 19 -24 c29 -36 33 -15 4 23 -14 19 -26 39 -26 45 0 6 -16 23 -35
38 -37 28 -49 62 -17 49 9 -4 63 -9 120 -12 97 -6 104 -5 127 17 19 18 25 34
25 66 0 38 -4 45 -36 65 -40 24 -39 18 -10 154 16 76 14 95 -16 168 -10 27
-17 51 -14 55 3 3 15 -17 26 -44 42 -100 68 -149 69 -128 1 11 -3 24 -7 30 -5
5 -24 46 -42 92 -18 45 -41 93 -52 107 -11 14 -17 29 -14 34 3 5 -10 29 -30
55 -19 25 -33 50 -30 55 7 11 -33 31 -68 34 -16 1 -31 -3 -33 -9 -2 -7 9 -9
29 -8 30 3 31 3 8 -5 -41 -15 -47 -12 -60 19 -18 43 -51 63 -163 99 -127 40
-212 42 -282 6z m360 -157 c22 -5 63 -30 94 -56 81 -70 171 -160 171 -172 0
-6 -16 -4 -39 6 -47 19 -95 15 -99 -7 -2 -12 8 -19 35 -26 31 -7 45 -19 76
-66 21 -31 42 -57 47 -57 13 0 13 47 0 55 -13 8 -13 35 0 35 17 0 23 -72 11
-139 -18 -98 -23 -103 -64 -58 -19 20 -39 37 -45 37 -6 0 -17 3 -26 6 -9 3
-16 2 -16 -3 0 -5 15 -15 34 -21 19 -7 37 -19 40 -27 4 -12 -9 -13 -82 -8 -48
3 -89 8 -91 10 -3 2 21 28 53 59 32 30 56 57 53 61 -12 11 -96 -68 -113 -106
-16 -36 -19 -38 -43 -29 -63 25 -71 32 -71 57 0 14 -5 33 -11 41 -8 12 -9 7
-6 -17 2 -18 0 -33 -5 -33 -14 0 -162 40 -176 48 -26 14 -215 -3 -244 -22 -38
-25 -75 -13 -84 27 -18 83 2 181 39 191 12 3 44 22 70 42 38 28 48 40 43 56
-3 12 -1 29 4 39 17 30 91 82 129 90 46 9 263 0 316 -13z m-785 -418 c5 0 25
-14 45 -31 19 -17 35 -26 35 -19 0 31 24 -2 41 -55 20 -65 24 -115 10 -115
-17 0 -24 22 -11 30 10 6 6 17 -18 45 -18 19 -32 41 -32 47 0 24 -63 78 -89
77 -18 -1 -20 -3 -8 -6 12 -3 16 -11 12 -24 -3 -10 -7 -27 -10 -36 -2 -10 0
-25 5 -33 8 -12 10 -10 10 11 0 14 6 34 14 44 13 18 14 17 30 -8 13 -20 15
-30 7 -46 -14 -25 -14 -88 -1 -96 6 -4 32 -12 58 -18 30 -8 47 -17 47 -27 0
-10 -8 -14 -25 -12 l-25 2 25 -14 25 -14 -29 -8 c-18 -4 -40 -1 -61 9 -27 13
-35 24 -45 69 -7 29 -26 69 -41 90 -38 48 -46 90 -24 124 10 16 22 23 32 20 8
-3 19 -6 23 -6z m380 -35 c-21 -25 -3 -29 26 -6 30 24 82 27 166 10 83 -16
108 -29 108 -53 0 -28 -15 -50 -29 -42 -6 4 -20 2 -31 -4 -22 -12 -27 -55 -7
-63 6 -3 -5 -6 -25 -6 -21 -1 -37 2 -35 7 3 11 -15 11 -40 -1 -15 -7 -42 -5
-94 8 -102 25 -124 53 -98 122 12 31 26 43 53 43 15 0 16 -3 6 -15z m650 -80
c6 -3 10 -30 10 -59 0 -28 5 -57 11 -63 7 -7 9 -19 5 -29 -10 -26 -89 -13
-142 25 -24 17 -44 26 -44 21 0 -5 8 -13 17 -19 23 -12 11 -25 -16 -16 -36 11
-68 124 -43 149 8 9 187 0 202 -9z m-950 -33 c23 -22 17 -62 -10 -62 -22 0
-34 31 -25 60 8 24 11 25 35 2z m1023 -6 l29 -23 -25 -7 c-27 -6 -57 1 -57 14
0 15 12 40 19 40 3 -1 19 -11 34 -24z m-7 -56 l27 -11 -22 -16 c-20 -13 -25
-13 -32 -2 -9 15 -12 39 -5 39 3 0 17 -5 32 -10z"/>
<path d="M786 1971 c5 -5 43 -11 84 -15 43 -3 69 -2 60 3 -20 11 -156 23 -144
12z"/>
<path d="M708 1913 c-10 -2 -18 -9 -18 -14 0 -6 8 -8 18 -5 53 16 98 16 180 2
101 -18 118 -19 109 -10 -22 23 -232 42 -289 27z"/>
<path d="M610 1850 c0 -5 24 -10 53 -10 34 0 63 -7 85 -20 37 -23 46 -25 36
-9 -20 33 -174 68 -174 39z"/>
<path d="M1038 1828 c-19 -16 -29 -56 -21 -86 9 -37 21 -24 16 17 -5 33 -2 42
16 53 21 13 28 28 13 28 -5 0 -15 -6 -24 -12z"/>
<path d="M611 1803 c-31 -3 -52 -13 -71 -32 -29 -28 -65 -90 -57 -97 7 -7 57
18 57 28 0 4 5 8 11 8 6 0 25 10 42 22 28 20 58 26 140 27 28 1 32 7 18 30 -9
15 -71 21 -140 14z"/>
<path d="M755 1713 c17 -25 17 -26 -1 -18 -11 5 -39 10 -64 11 -40 3 -38 2 21
-13 71 -16 89 -35 89 -90 0 -20 3 -24 11 -16 8 8 8 21 -1 49 -16 49 -49 104
-62 104 -6 0 -2 -12 7 -27z"/>
<path d="M1141 1674 c-7 -19 -11 -38 -8 -41 6 -5 37 50 37 67 0 23 -17 8 -29
-26z"/>
<path d="M609 1514 c-9 -11 -9 -18 -1 -26 14 -14 42 -3 42 16 0 20 -27 27 -41
10z"/>
<path d="M1062 1438 c5 -15 37 -18 41 -3 1 6 -9 12 -22 13 -16 3 -22 -1 -19
-10z"/>
<path d="M1515 2009 c-39 -11 -55 -34 -55 -77 0 -30 2 -33 15 -22 8 7 15 19
15 26 0 22 45 46 73 39 40 -10 69 -43 61 -68 -10 -31 -34 -46 -70 -47 -31 0
-32 -2 -49 -70 -9 -38 -14 -77 -11 -87 11 -27 27 -1 40 63 10 51 15 59 40 65
41 11 86 58 86 88 0 32 -37 77 -74 91 -31 11 -30 11 -71 -1z"/>
<path d="M1761 1926 c-12 -13 -24 -40 -28 -60 -5 -32 -3 -36 15 -36 17 0 21 7
24 43 3 39 5 42 35 45 29 3 35 -2 62 -45 33 -51 37 -73 21 -104 -8 -14 -22
-19 -53 -19 -23 0 -47 -4 -53 -8 -19 -13 -44 -80 -44 -119 l1 -38 20 24 c10
13 24 43 30 67 11 42 13 44 49 44 55 0 90 31 90 81 0 49 -19 88 -60 123 -39
33 -79 33 -109 2z"/>
<path d="M1992 1792 c-19 -12 -4 -45 17 -36 38 16 58 14 84 -6 15 -12 27 -30
27 -41 0 -16 -7 -19 -40 -19 -35 0 -42 -5 -70 -44 -16 -25 -30 -49 -30 -55 0
-22 20 -10 42 24 14 21 31 35 44 35 12 0 35 5 53 11 45 16 42 51 -9 101 -41
38 -86 50 -118 30z"/>
<path d="M1486 1611 c-4 -5 -3 -17 0 -26 7 -18 35 -17 41 2 5 14 -33 37 -41
24z"/>
<path d="M1720 1545 c0 -8 9 -15 20 -15 11 0 20 7 20 15 0 8 -9 15 -20 15 -11
0 -20 -7 -20 -15z"/>
<path d="M1962 1531 c-15 -9 -5 -41 13 -41 7 0 18 6 24 14 10 12 8 17 -6 25
-11 5 -25 6 -31 2z"/>
<path d="M868 1300 c23 -10 42 -24 42 -30 0 -5 5 -10 10 -10 6 0 10 5 10 10 0
14 -61 50 -85 50 -12 0 -4 -8 23 -20z"/>
<path d="M484 1190 c15 -19 36 -54 48 -77 26 -50 42 -57 25 -11 -7 17 -32 52
-56 77 -32 34 -36 37 -17 11z"/>
<path d="M926 1096 c7 -18 50 -37 69 -30 17 7 21 34 5 34 -5 0 -10 -4 -10 -10
0 -15 -26 -12 -40 5 -16 19 -31 20 -24 1z"/>
<path d="M868 1052 c-34 -15 -38 -21 -38 -52 1 -53 17 -66 90 -74 85 -8 88 -9
135 -6 22 2 51 0 64 -5 15 -5 21 -4 17 3 -3 6 -2 13 4 17 17 10 12 76 -7 92
-43 33 -74 45 -89 32 -13 -11 -68 -9 -119 5 -11 3 -37 -2 -57 -12z m106 -14
c36 -9 50 -9 69 1 20 11 28 11 46 0 26 -17 28 -32 2 -24 -11 3 -22 1 -26 -5
-9 -14 -53 -13 -109 4 -35 11 -56 12 -74 5 -26 -10 -26 -10 -7 10 21 24 38 26
99 9z m-60 -34 c20 -8 11 -24 -15 -24 -19 0 -25 11 -12 23 8 8 8 8 27 1z"/>
<path d="M226 878 c-15 -31 -40 -68 -57 -82 -17 -14 -25 -27 -19 -31 23 -14
118 125 107 157 -2 7 -16 -13 -31 -44z"/>
<path d="M910 903 c1 -29 63 -73 101 -73 l23 0 -22 -20 c-12 -12 -22 -31 -22
-43 1 -21 1 -21 12 -2 25 46 76 59 110 28 13 -11 18 -12 18 -3 0 7 -8 18 -17
25 -15 11 -15 13 5 19 14 5 22 15 22 29 -1 20 -2 20 -11 5 -8 -15 -24 -18 -84
-18 -69 0 -75 2 -98 30 -25 30 -37 37 -37 23z"/>
<path d="M2070 871 c0 -10 9 -29 20 -42 22 -27 27 -14 5 14 -7 11 -11 25 -8
33 3 8 0 14 -6 14 -6 0 -11 -9 -11 -19z"/>
<path d="M2196 740 c-15 -23 -22 -40 -15 -38 19 6 52 54 47 68 -2 7 -16 -7
-32 -30z"/>
<path d="M2180 636 c-19 -13 -46 -27 -60 -31 -14 -4 -40 -21 -57 -38 -33 -31
-43 -53 -20 -44 9 3 12 -52 12 -259 0 -145 3 -264 7 -264 15 0 20 123 13 318
-8 237 -4 254 51 272 47 16 104 49 104 61 0 14 -13 11 -50 -15z"/>
<path d="M1235 564 c6 -93 35 -220 46 -203 4 7 5 17 3 21 -3 5 -16 64 -30 131
-22 111 -23 116 -19 51z"/>
<path d="M923 543 c-25 -71 -49 -126 -102 -232 -59 -118 -109 -211 -121 -221
-21 -19 -69 -90 -61 -90 18 0 68 62 114 139 55 94 173 345 182 389 7 34 -1 44
-12 15z"/>
<path d="M1107 553 c-20 -32 54 -292 114 -401 18 -31 44 -78 57 -104 14 -27
29 -48 34 -48 5 0 -20 55 -55 123 -68 127 -122 281 -135 382 -4 34 -11 55 -15
48z"/>
<path d="M1946 531 c-16 -31 -22 -83 -8 -65 12 14 34 85 29 91 -3 3 -13 -9
-21 -26z"/>
<path d="M1946 295 c8 -108 35 -279 45 -290 12 -12 11 -1 0 61 -5 27 -15 95
-21 152 -13 123 -33 184 -24 77z"/>
<path d="M136 212 c-3 -4 2 -22 10 -38 18 -35 154 -174 170 -174 7 0 -21 32
-62 71 -40 40 -82 89 -93 111 -10 22 -22 35 -25 30z"/>
</g>
</svg>
